Coordinates
version=1
nRows=32
nColumns=22
inDegrees=yes

Units are S.I. units (second, meters, Newtons, ...)
If the header above contains a line with 'inDegrees', this indicates whether rotational values are in degrees (yes) or radians (no).

endheader
time	pelvis_tilt	pelvis_list	pelvis_rotation	pelvis_tx	pelvis_ty	pelvis_tz	hip_flexion_r	hip_adduction_r	hip_rotation_r	knee_angle_r	ankle_angle_r	subtalar_angle_r	hip_flexion_l	hip_adduction_l	hip_rotation_l	knee_angle_l	ankle_angle_l	subtalar_angle_l	lumbar_extension	lumbar_bending	lumbar_rotation
      3.75000000	     -1.55934598	      9.26188392	    -86.33580191	      0.35792760	      0.97768408	      0.91095200	     27.91317902	     -1.35457647	     -4.01170024	    -51.93332337	     18.97718696	     -2.65437496	     28.15893020	      2.03936017	     -0.69421639	    -24.10590566	     12.09411323	     -0.27967156	     -0.24164072	      0.43290169	      3.98655849
      3.76000000	     -1.54565396	      9.25731251	    -86.32775204	      0.35906674	      0.97821927	      0.91435513	     28.09362662	     -1.45401950	     -4.34517291	    -50.76480282	     19.61896196	     -2.56822600	     27.81378131	      2.10460762	     -0.75033177	    -23.89441056	     12.26523955	     -0.33238472	     -0.27175792	      0.40657686	      3.82679713
      3.77000000	     -1.53733174	      9.24641050	    -86.32185973	      0.36015140	      0.97875544	      0.91774056	     28.23086713	     -1.54808324	     -4.70248287	    -49.56600669	     20.23776259	     -2.52835171	     27.46361500	      2.16344368	     -0.78792550	    -23.68368046	     12.43161474	     -0.38746527	     -0.29709542	      0.38951751	      3.67602250
      3.78000000	     -1.53395353	      9.23489459	    -86.31041310	      0.36119998	      0.97927114	      0.92109932	     28.33867056	     -1.64414534	     -5.09990193	    -48.35899812	     20.82280845	     -2.55237876	     27.12369309	      2.21773030	     -0.81771586	    -23.48806965	     12.59910534	     -0.44087088	     -0.31300725	      0.37994960	      3.54009547
      3.79000000	     -1.53731056	      9.22084112	    -86.30676896	      0.36216105	      0.97978119	      0.92444210	     28.41807196	     -1.71722189	     -5.49604875	    -47.15109006	     21.35847698	     -2.64514183	     26.78449337	      2.25980175	     -0.83175040	    -23.29689729	     12.76101821	     -0.49593673	     -0.32134372	      0.37665889	      3.41661082
      3.80000000	     -1.54580536	      9.21297154	    -86.30431412	      0.36304995	      0.98025583	      0.92774589	     28.48662710	     -1.77484059	     -5.89794893	    -45.95959362	     21.84910836	     -2.79258330	     26.46819470	      2.29136472	     -0.85063575	    -23.13128445	     12.92672075	     -0.54733557	     -0.31584094	      0.37683814	      3.31672183
      3.81000000	     -1.56445261	      9.20132428	    -86.32191853	      0.36381754	      0.98073574	      0.93102638	     28.53119674	     -1.78004706	     -6.24246389	    -44.77826519	     22.28088614	     -3.00216686	     26.14500743	      2.30312229	     -0.85052399	    -22.95873214	     13.08161270	     -0.60347601	     -0.30770747	      0.38638319	      3.23925433
      3.82000000	     -1.58911521	      9.21038041	    -86.34488490	      0.36450503	      0.98113858	      0.93425032	     28.59029609	     -1.75802443	     -6.55856461	    -43.63538879	     22.68976241	     -3.17247169	     25.87100070	      2.29841571	     -0.88512502	    -22.82889038	     13.25488428	     -0.64688983	     -0.27197385	      0.40108000	      3.18370626
      3.83000000	     -1.60260006	      9.27097842	    -86.40720264	      0.36502918	      0.98144355	      0.93739999	     28.70170081	     -1.68739173	     -6.74188674	    -42.52902230	     23.08205212	     -3.25138721	     25.65183559	      2.29090340	     -0.92116203	    -22.69476219	     13.39651220	     -0.66824325	     -0.17409949	      0.39091886	      3.18203283
      3.84000000	     -1.66884526	      9.25692513	    -86.44869056	      0.36549717	      0.98185284	      0.94054099	     28.69956955	     -1.54122105	     -6.92823250	    -41.41857644	     23.38279084	     -3.33930362	     25.37652256	      2.21985236	     -0.97686217	    -22.59251013	     13.60116768	     -0.71285747	     -0.16186578	      0.44986076	      3.15541577
      3.85000000	     -1.69480845	      9.32531161	    -86.52525134	      0.36582957	      0.98209773	      0.94357496	     28.78998759	     -1.37987873	     -6.94968921	    -40.36373523	     23.71415660	     -3.32772675	     25.18708818	      2.18540763	     -1.01666811	    -22.48218782	     13.74802349	     -0.72774223	     -0.05722800	      0.44817398	      3.18068537
      3.86000000	     -1.77884237	      9.33207117	    -86.60702308	      0.36603967	      0.98242343	      0.94661272	     28.78017135	     -1.12153303	     -6.92495768	    -39.30196717	     23.96287795	     -3.16230340	     24.95759647	      2.06549011	     -1.12091200	    -22.41223903	     13.97561941	     -0.75084475	     -0.01978675	      0.51684764	      3.20738084
      3.87000000	     -1.84148897	      9.35603849	    -86.69579936	      0.36615872	      0.98269922	      0.94958550	     28.77507924	     -0.84965685	     -6.78529592	    -38.27992187	     24.21638500	     -2.81331353	     24.74314891	      1.96818802	     -1.18978751	    -22.33171960	     14.17026148	     -0.75201330	      0.03385865	      0.55040420	      3.25443811
      3.88000000	     -1.91218683	      9.39940586	    -86.79033359	      0.36618513	      0.98289905	      0.95250315	     28.77354004	     -0.54127305	     -6.56089935	    -37.29327416	     24.42438098	     -2.43053220	     24.57033642	      1.85358687	     -1.28289020	    -22.28304669	     14.38435996	     -0.74643829	      0.11145253	      0.59119578	      3.30382765
      3.89000000	     -1.99272019	      9.45042087	    -86.88534378	      0.36614496	      0.98304663	      0.95539776	     28.75620546	     -0.20682930	     -6.28061267	    -36.34043360	     24.57441512	     -2.10356893	     24.41826571	      1.72094403	     -1.40321628	    -22.25293162	     14.60816484	     -0.74726145	      0.20366139	      0.64364561	      3.36706064
      3.90000000	     -2.04517089	      9.45489418	    -86.97412336	      0.36606876	      0.98325568	      0.95827724	     28.66621244	      0.11153967	     -5.92147233	    -35.44223552	     24.64209713	     -1.48784748	     24.20550249	      1.62359128	     -1.47020891	    -22.20471886	     14.81647855	     -0.72804505	      0.24059673	      0.66309705	      3.41037020
      3.91000000	     -2.10309120	      9.47267409	    -87.05949838	      0.36596222	      0.98340371	      0.96114828	     28.56719705	      0.43618419	     -5.53286791	    -34.59648305	     24.57943070	     -1.02505513	     24.01500570	      1.51657846	     -1.56314446	    -22.16853782	     15.02360243	     -0.73537354	      0.30476347	      0.69391789	      3.46665338
      3.92000000	     -2.15117281	      9.47936589	    -87.13518175	      0.36582370	      0.98353398	      0.96401164	     28.43707411	      0.75081889	     -5.10893360	    -33.82172242	     24.33308069	     -0.65120057	     23.81664517	      1.41993079	     -1.65717583	    -22.13813775	     15.22735061	     -0.76224991	      0.36320288	      0.71297241	      3.51155002
      3.93000000	     -2.18784561	      9.50049224	    -87.19601961	      0.36568407	      0.98360260	      0.96685645	     28.31021833	      1.04230447	     -4.67538721	    -33.13485732	     23.84529082	     -0.43630785	     23.64287876	      1.33882759	     -1.75577758	    -22.12181683	     15.41051929	     -0.80069324	      0.44957785	      0.72203582	      3.53913402
      3.94000000	     -2.20054230	      9.49423941	    -87.24806036	      0.36556638	      0.98368235	      0.96971335	     28.14010279	      1.29687457	     -4.23699208	    -32.53961846	     23.15789311	     -0.29232176	     23.43439045	      1.28919852	     -1.83318654	    -22.09882434	     15.59268835	     -0.84750770	      0.51381334	      0.71298277	      3.56102913
      3.95000000	     -2.19630284	      9.47251682	    -87.28671493	      0.36546414	      0.98375048	      0.97258526	     27.94308542	      1.51858816	     -3.80967006	    -32.04020087	     22.25429130	     -0.31359410	     23.21124394	      1.26069560	     -1.90887073	    -22.08032270	     15.77491530	     -0.89786990	      0.57339968	      0.69027383	      3.57640305
      3.96000000	     -2.16604041	      9.40384372	    -87.32306592	      0.36536065	      0.98385701	      0.97548824	     27.68772969	      1.70355706	     -3.40708756	    -31.63505463	     21.15507250	     -0.76653190	     22.92928618	      1.26359218	     -1.95356672	    -22.05227827	     16.00370291	     -0.95379167	      0.58916694	      0.64277464	      3.59702003
      3.97000000	     -2.12012285	      9.36647398	    -87.34093737	      0.36529846	      0.98387465	      0.97838314	     27.46555058	      1.84002871	     -3.07000140	    -31.32496625	     19.93757239	     -1.45337456	     22.69414126	      1.28908093	     -2.01098955	    -22.04474011	     16.20056152	     -0.98882077	      0.65746665	      0.58579141	      3.59299842
      3.98000000	     -2.04668677	      9.33130629	    -87.34007759	      0.36530123	      0.98386890	      0.98128503	     27.24102936	      1.91244538	     -2.81116393	    -31.09340506	     18.72328315	     -2.36316235	     22.45541353	      1.35505202	     -2.05101648	    -22.02386980	     16.35710885	     -1.01074037	      0.74148509	      0.50823931	      3.56876453
      3.99000000	     -1.96703810	      9.29055147	    -87.34692632	      0.36529760	      0.98383678	      0.98417889	     27.00733388	      1.96059281	     -2.59737898	    -30.92211495	     17.63484486	     -3.33182495	     22.21799295	      1.42471281	     -2.09833662	    -22.01866668	     16.56611684	     -1.03252415	      0.82751353	      0.43197823	      3.56371282
      4.00000000	     -1.87099884	      9.25590540	    -87.34113778	      0.36533387	      0.98379357	      0.98706817	     26.76785456	      1.95990920	     -2.45976898	    -30.78440992	     16.75549648	     -4.31360244	     21.98082220	      1.51983103	     -2.12980347	    -21.99945602	     16.74133314	     -1.04812124	      0.93044820	      0.34513438	      3.54272775
      4.01000000	     -1.77781470	      9.22116807	    -87.33518745	      0.36535073	      0.98375650	      0.98994344	     26.50966813	      1.94800348	     -2.36074763	    -30.65235485	     16.12963248	     -5.18975450	     21.74575794	      1.61098877	     -2.15889813	    -21.98268678	     16.90884708	     -1.06261025	      1.03993721	      0.26432553	      3.52591490
      4.02000000	     -1.69099715	      9.19121299	    -87.32429001	      0.36539209	      0.98373153	      0.99281078	     26.23157193	      1.92543089	     -2.30039492	    -30.50550910	     15.75457151	     -5.91063283	     21.51126595	      1.69924071	     -2.18438204	    -21.95405810	     17.06949154	     -1.07481288	      1.16248555	      0.20265956	      3.50728789
      4.03000000	     -1.61832508	      9.15893896	    -87.31449739	      0.36540083	      0.98373143	      0.99565711	     25.92278072	      1.91449710	     -2.24983222	    -30.32582142	     15.59372814	     -6.52429136	     21.27671888	      1.77166130	     -2.19701530	    -21.92888201	     17.24896663	     -1.08668780	      1.28519880	      0.15787498	      3.49644228
      4.04000000	     -1.56906433	      9.13239668	    -87.30859299	      0.36536521	      0.98375986	      0.99848211	     25.58700364	      1.92930395	     -2.19436600	    -30.09657369	     15.59049344	     -7.01001959	     21.05046539	      1.81457582	     -2.21921923	    -21.90253812	     17.41104461	     -1.09830132	      1.41816824	      0.14199700	      3.48677182
      4.05000000	     -1.53915975	      9.10164384	    -87.31092281	      0.36531158	      0.98384133	      1.00126983	     25.21470951	      1.96670705	     -2.11889085	    -29.81049058	     15.66859749	     -7.43639529	     20.82078169	      1.83631355	     -2.23600794	    -21.87367101	     17.56521302	     -1.10959019	      1.54454670	      0.15713491	      3.49373917
      4.06000000	     -1.53414995	      9.08121620	    -87.32592424	      0.36519484	      0.98394519	      1.00401606	     24.83178544	      2.03166322	     -2.03832830	    -29.48107708	     15.80446316	     -7.76230844	     20.60661867	      1.82424469	     -2.26745625	    -21.84646314	     17.71727779	     -1.12093398	      1.68241118	      0.20024103	      3.51076744
